# xmcd
#
# Track frame offsets: 
#        150
#        11367
#        23871
#        37090
#        47668
#        60660
#        74377
#        85392
#        97618
#        109015
#        122454
#        134357
#        147124
#        160018
#        173059
#        186251
#        200656
#        214492
#        229780
#        240823
#        252618
#        267109
#        280244
#        292701
#
# Disc length: 4109 seconds
#
# Revision: 0
# Processed by: cddbd v1.5.2PL0 Copyright (c) Steve Scherf et al.
# Submitted via: ExactAudioCopy v0.95b3
#
DISCID=4e100b18
DTITLE=Roy Orbison  - Orbison 1955 - 1965 Disc 6
DYEAR=1900
DGENRE=
TTITLE0=Falling
TTITLE1=Shahdaroba
TTITLE2=In  Dreams
TTITLE3=Dream
TTITLE4=My Prayer
TTITLE5=Lonely Wine
TTITLE6=Beautiful Dreamer
TTITLE7=All I Have To Do Is Dream Of You
TTITLE8=Mean Woman
TTITLE9=What'd I Say
TTITLE10=San Fernando
TTITLE11=Mama
TTITLE12=Pretty Paper
TTITLE13=Almost
TTITLE14=It's Over
TTITLE15=Indian Wedding
TTITLE16=Oh Pretty Woman
TTITLE17=Yo Te Amo Maria
TTITLE18=Only With You
TTITLE19=Goodnight
TTITLE20=(Say) You're My Girl (fast)
TTITLE21=(Say) You're My Girl (slow)
TTITLE22=Sleepy Hollow
TTITLE23=Ride Away
EXTD=
EXTT0=
EXTT1=
EXTT2=
EXTT3=
EXTT4=
EXTT5=
EXTT6=
EXTT7=
EXTT8=
EXTT9=
EXTT10=
EXTT11=
EXTT12=
EXTT13=
EXTT14=
EXTT15=
EXTT16=
EXTT17=
EXTT18=
EXTT19=
EXTT20=
EXTT21=
EXTT22=
EXTT23=
PLAYORDER=
